# xmcd
#
# Track frame offsets:
#	182
#	19880
#	30752
#	43220
#	55505
#	67245
#	82972
#	98160
#	112030
#	126100
#	139460
#	150875
#	163207
#	175692
#	188482
#	200582
#
# Disc length: 2813
#
# Revision: 1
# Processed by: cddbd v1.5.1PL0 Copyright (c) Steve Scherf et al.
# Submitted via: CDex 1.50beta10
# Normalized: r0:TDELIM( - )
#
DISCID=d10afb10
DTITLE=Various Artist - I've got the BLUES
DYEAR=1900
DGENRE=Blues
TTITLE0=MUDDY WATERS - Got My Mojo Working
TTITLE1=HOWLIN' WOLF - Wang Dang Doodle
TTITLE2=BO DIDDLEY - Pretty Thing
TTITLE3=JIMMY REED - Honest I Do
TTITLE4=ETTA JAMES - I Would Rather Go Blind
TTITLE5=SCREAMIN' JAY HAWKINS - I Put A Spell On You
TTITLE6=JOHN LEE HOOKER - Tupelo
TTITLE7=CHUCK BERRY - Wee Wee Hours
TTITLE8=MUDDY WATERS - 40 Days And 40 Nights
TTITLE9=HOWLIN' WOLF - Tell Me
TTITLE10=BO DIDDLEY - Bo's Guitar
TTITLE11=JIMMY REED - Pretty Thing
TTITLE12=ETTA JAMES - Next Door To The Blues
TTITLE13=LITTLE WALTER - Key To The Highway
TTITLE14=JOHN LEE HOOKER - Frisco Blues
TTITLE15=CHUCK BERRY - Almost Grown
EXTD=
EXTT0=
EXTT1=
EXTT2=
EXTT3=
EXTT4=
EXTT5=
EXTT6=
EXTT7=
EXTT8=
EXTT9=
EXTT10=
EXTT11=
EXTT12=
EXTT13=
EXTT14=
EXTT15=
PLAYORDER=
